# xmcd
#
# Track frame offsets:
#	150
#	15454
#	26885
#	48039
#	61783
#	77250
#	92583
#	114234
#	133028
#	146052
#	166587
#	184167
#	195915
#	212301
#	225438
#
# Disc length: 3224 seconds
#
# Revision: 1
# Processed by: cddbd v1.5.1PL2 Copyright (c) Steve Scherf et al.
# Submitted via: audiograbber 1.83.01
#
DISCID=a80c960f
DTITLE=Jeff and Sheri Easter - Miles and Milestones
DYEAR=2005
DGENRE=Bluegrass Gospel
TTITLE0=Carry Me
TTITLE1=Been There, Done That
TTITLE2=Praise His Name
TTITLE3=Morning's Coming
TTITLE4=The Missing Peace
TTITLE5=One Way
TTITLE6=Tavern To a Temple
TTITLE7=Learn to Love Again
TTITLE8=I Need You
TTITLE9=Goin' Away Party
TTITLE10=Speak To The Mountain
TTITLE11=Singing In My Soul
TTITLE12=Thread Of Hope
TTITLE13=Thank You, Lord, For Your Blessings
TTITLE14=We're Not Gonna Bow
EXTD=
EXTT0=
EXTT1=
EXTT2=
EXTT3=
EXTT4=
EXTT5=
EXTT6=
EXTT7=
EXTT8=
EXTT9=
EXTT10=
EXTT11=
EXTT12=
EXTT13=
EXTT14=
PLAYORDER=
